<mxfile host="app.diagrams.net" modified="2023-05-06T18:01:45.855Z" agent="Mozilla/5.0 (Windows NT 10.0; Win64; x64) AppleWebKit/537.36 (KHTML, like Gecko) Chrome/112.0.0.0 Safari/537.36" etag="OGjJ9_oTVGyNLFxPxtdV" version="21.2.9" type="device">
  <diagram name="Page-1" id="aZyefjECCmNBpsUSBsal">
    <mxGraphModel dx="3500" dy="1743" grid="1" gridSize="10" guides="1" tooltips="1" connect="1" arrows="1" fold="1" page="1" pageScale="1" pageWidth="2336" pageHeight="1654" math="0" shadow="0">
      <root>
        <mxCell id="0" />
        <mxCell id="1" parent="0" />
        <mxCell id="mNrghwgnsyUfMwKl9J6l-1" value="" style="swimlane;startSize=0;strokeWidth=4;" parent="1" vertex="1">
          <mxGeometry x="470" y="370" width="1300" height="650" as="geometry" />
        </mxCell>
        <mxCell id="mNrghwgnsyUfMwKl9J6l-45" style="edgeStyle=orthogonalEdgeStyle;rounded=0;orthogonalLoop=1;jettySize=auto;html=1;entryX=0.5;entryY=0;entryDx=0;entryDy=0;" parent="mNrghwgnsyUfMwKl9J6l-1" source="mNrghwgnsyUfMwKl9J6l-2" target="mNrghwgnsyUfMwKl9J6l-15" edge="1">
          <mxGeometry relative="1" as="geometry" />
        </mxCell>
        <mxCell id="mNrghwgnsyUfMwKl9J6l-2" value="Registration/Login Module" style="rounded=0;whiteSpace=wrap;html=1;fontSize=21;" parent="mNrghwgnsyUfMwKl9J6l-1" vertex="1">
          <mxGeometry x="530" y="20" width="250" height="80" as="geometry" />
        </mxCell>
        <mxCell id="mNrghwgnsyUfMwKl9J6l-35" style="edgeStyle=orthogonalEdgeStyle;rounded=0;orthogonalLoop=1;jettySize=auto;html=1;" parent="mNrghwgnsyUfMwKl9J6l-1" source="mNrghwgnsyUfMwKl9J6l-15" target="mNrghwgnsyUfMwKl9J6l-10" edge="1">
          <mxGeometry relative="1" as="geometry">
            <Array as="points">
              <mxPoint x="420" y="205" />
              <mxPoint x="420" y="285" />
            </Array>
          </mxGeometry>
        </mxCell>
        <mxCell id="mNrghwgnsyUfMwKl9J6l-10" value="Loans Module" style="rounded=0;whiteSpace=wrap;html=1;fontSize=21;" parent="mNrghwgnsyUfMwKl9J6l-1" vertex="1">
          <mxGeometry x="120" y="240" width="250" height="90" as="geometry" />
        </mxCell>
        <mxCell id="MI2Ik392UGZHAneTyMIL-27" style="edgeStyle=orthogonalEdgeStyle;rounded=0;orthogonalLoop=1;jettySize=auto;html=1;entryX=0.5;entryY=1;entryDx=0;entryDy=0;" parent="mNrghwgnsyUfMwKl9J6l-1" source="mNrghwgnsyUfMwKl9J6l-12" target="mNrghwgnsyUfMwKl9J6l-16" edge="1">
          <mxGeometry relative="1" as="geometry" />
        </mxCell>
        <mxCell id="mNrghwgnsyUfMwKl9J6l-12" value="Support Module" style="rounded=0;whiteSpace=wrap;html=1;fontSize=21;" parent="mNrghwgnsyUfMwKl9J6l-1" vertex="1">
          <mxGeometry x="520" y="550" width="250" height="80" as="geometry" />
        </mxCell>
        <mxCell id="mNrghwgnsyUfMwKl9J6l-32" style="edgeStyle=orthogonalEdgeStyle;rounded=0;orthogonalLoop=1;jettySize=auto;html=1;exitX=0;exitY=0.25;exitDx=0;exitDy=0;entryX=1;entryY=0.5;entryDx=0;entryDy=0;" parent="mNrghwgnsyUfMwKl9J6l-1" source="mNrghwgnsyUfMwKl9J6l-15" target="mNrghwgnsyUfMwKl9J6l-13" edge="1">
          <mxGeometry relative="1" as="geometry" />
        </mxCell>
        <mxCell id="mNrghwgnsyUfMwKl9J6l-13" value="Credit Cards Module" style="rounded=0;whiteSpace=wrap;html=1;fontSize=21;" parent="mNrghwgnsyUfMwKl9J6l-1" vertex="1">
          <mxGeometry x="120" y="120" width="250" height="90" as="geometry" />
        </mxCell>
        <mxCell id="mNrghwgnsyUfMwKl9J6l-34" style="edgeStyle=orthogonalEdgeStyle;rounded=0;orthogonalLoop=1;jettySize=auto;html=1;exitX=0;exitY=0.75;exitDx=0;exitDy=0;entryX=1;entryY=0.25;entryDx=0;entryDy=0;" parent="mNrghwgnsyUfMwKl9J6l-1" source="mNrghwgnsyUfMwKl9J6l-15" target="mNrghwgnsyUfMwKl9J6l-14" edge="1">
          <mxGeometry relative="1" as="geometry" />
        </mxCell>
        <mxCell id="mNrghwgnsyUfMwKl9J6l-14" value="Bill Payment Module" style="rounded=0;whiteSpace=wrap;html=1;fontSize=21;" parent="mNrghwgnsyUfMwKl9J6l-1" vertex="1">
          <mxGeometry x="120" y="370" width="250" height="90" as="geometry" />
        </mxCell>
        <mxCell id="MI2Ik392UGZHAneTyMIL-46" style="edgeStyle=orthogonalEdgeStyle;rounded=0;orthogonalLoop=1;jettySize=auto;html=1;entryX=0.5;entryY=0;entryDx=0;entryDy=0;" parent="mNrghwgnsyUfMwKl9J6l-1" source="mNrghwgnsyUfMwKl9J6l-15" target="MI2Ik392UGZHAneTyMIL-18" edge="1">
          <mxGeometry relative="1" as="geometry" />
        </mxCell>
        <mxCell id="mNrghwgnsyUfMwKl9J6l-15" value="DashBoard Module" style="rounded=0;whiteSpace=wrap;html=1;fontSize=21;" parent="mNrghwgnsyUfMwKl9J6l-1" vertex="1">
          <mxGeometry x="530" y="150" width="250" height="110" as="geometry" />
        </mxCell>
        <mxCell id="mNrghwgnsyUfMwKl9J6l-16" value="Notifications Module" style="rounded=0;whiteSpace=wrap;html=1;fontSize=21;" parent="mNrghwgnsyUfMwKl9J6l-1" vertex="1">
          <mxGeometry x="520" y="430" width="250" height="90" as="geometry" />
        </mxCell>
        <mxCell id="mNrghwgnsyUfMwKl9J6l-37" style="edgeStyle=orthogonalEdgeStyle;rounded=0;orthogonalLoop=1;jettySize=auto;html=1;exitX=1;exitY=0.5;exitDx=0;exitDy=0;" parent="mNrghwgnsyUfMwKl9J6l-1" source="mNrghwgnsyUfMwKl9J6l-15" target="mNrghwgnsyUfMwKl9J6l-17" edge="1">
          <mxGeometry relative="1" as="geometry" />
        </mxCell>
        <mxCell id="mNrghwgnsyUfMwKl9J6l-17" value="Bank Account Manager/Application Module" style="rounded=0;whiteSpace=wrap;html=1;fontSize=21;" parent="mNrghwgnsyUfMwKl9J6l-1" vertex="1">
          <mxGeometry x="960" y="240" width="250" height="90" as="geometry" />
        </mxCell>
        <mxCell id="mNrghwgnsyUfMwKl9J6l-36" style="edgeStyle=orthogonalEdgeStyle;rounded=0;orthogonalLoop=1;jettySize=auto;html=1;exitX=1;exitY=0.25;exitDx=0;exitDy=0;entryX=0.01;entryY=0.528;entryDx=0;entryDy=0;entryPerimeter=0;" parent="mNrghwgnsyUfMwKl9J6l-1" source="mNrghwgnsyUfMwKl9J6l-15" target="mNrghwgnsyUfMwKl9J6l-18" edge="1">
          <mxGeometry relative="1" as="geometry">
            <Array as="points">
              <mxPoint x="940" y="178" />
              <mxPoint x="940" y="178" />
            </Array>
          </mxGeometry>
        </mxCell>
        <mxCell id="mNrghwgnsyUfMwKl9J6l-18" value="Points Management Module" style="rounded=0;whiteSpace=wrap;html=1;fontSize=21;" parent="mNrghwgnsyUfMwKl9J6l-1" vertex="1">
          <mxGeometry x="952.5" y="130" width="250" height="90" as="geometry" />
        </mxCell>
        <mxCell id="mNrghwgnsyUfMwKl9J6l-19" value="Bank Transfer Module" style="rounded=0;whiteSpace=wrap;html=1;fontSize=21;" parent="mNrghwgnsyUfMwKl9J6l-1" vertex="1">
          <mxGeometry x="950" y="370" width="250" height="90" as="geometry" />
        </mxCell>
        <mxCell id="mNrghwgnsyUfMwKl9J6l-55" value="" style="endArrow=classic;html=1;rounded=0;exitX=1;exitY=1;exitDx=0;exitDy=0;entryX=0;entryY=0;entryDx=0;entryDy=0;" parent="mNrghwgnsyUfMwKl9J6l-1" source="mNrghwgnsyUfMwKl9J6l-13" target="mNrghwgnsyUfMwKl9J6l-16" edge="1">
          <mxGeometry width="50" height="50" relative="1" as="geometry">
            <mxPoint x="580" y="420" as="sourcePoint" />
            <mxPoint x="630" y="370" as="targetPoint" />
          </mxGeometry>
        </mxCell>
        <mxCell id="mNrghwgnsyUfMwKl9J6l-57" value="" style="endArrow=classic;html=1;rounded=0;exitX=1;exitY=1;exitDx=0;exitDy=0;entryX=-0.014;entryY=0.423;entryDx=0;entryDy=0;entryPerimeter=0;" parent="mNrghwgnsyUfMwKl9J6l-1" source="mNrghwgnsyUfMwKl9J6l-10" target="mNrghwgnsyUfMwKl9J6l-16" edge="1">
          <mxGeometry width="50" height="50" relative="1" as="geometry">
            <mxPoint x="400" y="520" as="sourcePoint" />
            <mxPoint x="450" y="470" as="targetPoint" />
          </mxGeometry>
        </mxCell>
        <mxCell id="mNrghwgnsyUfMwKl9J6l-60" value="" style="endArrow=classic;html=1;rounded=0;exitX=0;exitY=1;exitDx=0;exitDy=0;entryX=1;entryY=0;entryDx=0;entryDy=0;" parent="mNrghwgnsyUfMwKl9J6l-1" source="mNrghwgnsyUfMwKl9J6l-18" target="mNrghwgnsyUfMwKl9J6l-16" edge="1">
          <mxGeometry width="50" height="50" relative="1" as="geometry">
            <mxPoint x="790" y="330" as="sourcePoint" />
            <mxPoint x="950" y="640" as="targetPoint" />
          </mxGeometry>
        </mxCell>
        <mxCell id="mNrghwgnsyUfMwKl9J6l-61" value="" style="endArrow=classic;html=1;rounded=0;exitX=0;exitY=1;exitDx=0;exitDy=0;entryX=1.01;entryY=0.413;entryDx=0;entryDy=0;entryPerimeter=0;" parent="mNrghwgnsyUfMwKl9J6l-1" source="mNrghwgnsyUfMwKl9J6l-17" target="mNrghwgnsyUfMwKl9J6l-16" edge="1">
          <mxGeometry width="50" height="50" relative="1" as="geometry">
            <mxPoint x="910" y="220" as="sourcePoint" />
            <mxPoint x="790" y="530" as="targetPoint" />
          </mxGeometry>
        </mxCell>
        <mxCell id="mNrghwgnsyUfMwKl9J6l-63" value="get CreditCards summary" style="text;html=1;strokeColor=none;fillColor=none;align=center;verticalAlign=middle;whiteSpace=wrap;rounded=0;" parent="mNrghwgnsyUfMwKl9J6l-1" vertex="1">
          <mxGeometry x="390" y="130" width="140" height="50" as="geometry" />
        </mxCell>
        <mxCell id="mNrghwgnsyUfMwKl9J6l-90" value="get loans summary" style="text;html=1;strokeColor=none;fillColor=none;align=center;verticalAlign=middle;whiteSpace=wrap;rounded=0;" parent="mNrghwgnsyUfMwKl9J6l-1" vertex="1">
          <mxGeometry x="410" y="170" width="130" height="50" as="geometry" />
        </mxCell>
        <mxCell id="mNrghwgnsyUfMwKl9J6l-91" value="get bills summary" style="text;html=1;strokeColor=none;fillColor=none;align=center;verticalAlign=middle;whiteSpace=wrap;rounded=0;" parent="mNrghwgnsyUfMwKl9J6l-1" vertex="1">
          <mxGeometry x="410" y="210" width="120" height="25" as="geometry" />
        </mxCell>
        <mxCell id="mNrghwgnsyUfMwKl9J6l-94" value="get points summary" style="text;html=1;strokeColor=none;fillColor=none;align=center;verticalAlign=middle;whiteSpace=wrap;rounded=0;" parent="mNrghwgnsyUfMwKl9J6l-1" vertex="1">
          <mxGeometry x="780" y="140" width="120" height="25" as="geometry" />
        </mxCell>
        <mxCell id="mNrghwgnsyUfMwKl9J6l-124" value="get accounts/applications summary" style="text;html=1;strokeColor=none;fillColor=none;align=center;verticalAlign=middle;whiteSpace=wrap;rounded=0;" parent="mNrghwgnsyUfMwKl9J6l-1" vertex="1">
          <mxGeometry x="780" y="180" width="150" height="25" as="geometry" />
        </mxCell>
        <mxCell id="mNrghwgnsyUfMwKl9J6l-129" value="*" style="text;html=1;strokeColor=none;fillColor=none;align=center;verticalAlign=middle;whiteSpace=wrap;rounded=0;fontSize=27;" parent="mNrghwgnsyUfMwKl9J6l-1" vertex="1">
          <mxGeometry x="460" y="360" width="60" height="30" as="geometry" />
        </mxCell>
        <mxCell id="mNrghwgnsyUfMwKl9J6l-130" value="*" style="text;html=1;strokeColor=none;fillColor=none;align=center;verticalAlign=middle;whiteSpace=wrap;rounded=0;fontSize=27;" parent="mNrghwgnsyUfMwKl9J6l-1" vertex="1">
          <mxGeometry x="440" y="400" width="60" height="30" as="geometry" />
        </mxCell>
        <mxCell id="mNrghwgnsyUfMwKl9J6l-132" value="*" style="text;html=1;strokeColor=none;fillColor=none;align=center;verticalAlign=middle;whiteSpace=wrap;rounded=0;fontSize=27;" parent="mNrghwgnsyUfMwKl9J6l-1" vertex="1">
          <mxGeometry x="780" y="360" width="60" height="30" as="geometry" />
        </mxCell>
        <mxCell id="mNrghwgnsyUfMwKl9J6l-133" value="*" style="text;html=1;strokeColor=none;fillColor=none;align=center;verticalAlign=middle;whiteSpace=wrap;rounded=0;fontSize=27;" parent="mNrghwgnsyUfMwKl9J6l-1" vertex="1">
          <mxGeometry x="790" y="410" width="60" height="30" as="geometry" />
        </mxCell>
        <mxCell id="mNrghwgnsyUfMwKl9J6l-136" value="*" style="text;html=1;strokeColor=none;fillColor=none;align=center;verticalAlign=middle;whiteSpace=wrap;rounded=0;fontSize=27;" parent="mNrghwgnsyUfMwKl9J6l-1" vertex="1">
          <mxGeometry x="1130" y="600" width="60" height="30" as="geometry" />
        </mxCell>
        <mxCell id="mNrghwgnsyUfMwKl9J6l-137" value="Notify updates" style="text;html=1;strokeColor=none;fillColor=none;align=center;verticalAlign=middle;whiteSpace=wrap;rounded=0;fontSize=15;" parent="mNrghwgnsyUfMwKl9J6l-1" vertex="1">
          <mxGeometry x="1160" y="600" width="120" height="30" as="geometry" />
        </mxCell>
        <mxCell id="mNrghwgnsyUfMwKl9J6l-150" value="manage bills" style="text;html=1;strokeColor=none;fillColor=none;align=center;verticalAlign=middle;whiteSpace=wrap;rounded=0;" parent="mNrghwgnsyUfMwKl9J6l-1" vertex="1">
          <mxGeometry x="230" y="525" width="120" height="25" as="geometry" />
        </mxCell>
        <mxCell id="mNrghwgnsyUfMwKl9J6l-151" value="manage transfers" style="text;html=1;strokeColor=none;fillColor=none;align=center;verticalAlign=middle;whiteSpace=wrap;rounded=0;" parent="mNrghwgnsyUfMwKl9J6l-1" vertex="1">
          <mxGeometry x="1025" y="540" width="105" height="30" as="geometry" />
        </mxCell>
        <mxCell id="mNrghwgnsyUfMwKl9J6l-152" value="Redirects" style="text;html=1;strokeColor=none;fillColor=none;align=center;verticalAlign=middle;whiteSpace=wrap;rounded=0;" parent="mNrghwgnsyUfMwKl9J6l-1" vertex="1">
          <mxGeometry x="595" y="120" width="60" height="30" as="geometry" />
        </mxCell>
        <mxCell id="MI2Ik392UGZHAneTyMIL-10" value="Text To Speech Integration Module" style="rounded=0;whiteSpace=wrap;html=1;fontSize=21;" parent="mNrghwgnsyUfMwKl9J6l-1" vertex="1">
          <mxGeometry x="980" y="20" width="250" height="90" as="geometry" />
        </mxCell>
        <mxCell id="MI2Ik392UGZHAneTyMIL-45" style="edgeStyle=orthogonalEdgeStyle;rounded=0;orthogonalLoop=1;jettySize=auto;html=1;entryX=0.538;entryY=-0.008;entryDx=0;entryDy=0;entryPerimeter=0;" parent="mNrghwgnsyUfMwKl9J6l-1" source="MI2Ik392UGZHAneTyMIL-18" target="mNrghwgnsyUfMwKl9J6l-16" edge="1">
          <mxGeometry relative="1" as="geometry" />
        </mxCell>
        <mxCell id="MI2Ik392UGZHAneTyMIL-18" value="Transactions Module" style="rounded=0;whiteSpace=wrap;html=1;fontSize=21;" parent="mNrghwgnsyUfMwKl9J6l-1" vertex="1">
          <mxGeometry x="530" y="300" width="250" height="80" as="geometry" />
        </mxCell>
        <mxCell id="mNrghwgnsyUfMwKl9J6l-128" value="send support updates" style="text;html=1;strokeColor=none;fillColor=none;align=center;verticalAlign=middle;whiteSpace=wrap;rounded=0;" parent="mNrghwgnsyUfMwKl9J6l-1" vertex="1">
          <mxGeometry x="585" y="525" width="120" height="25" as="geometry" />
        </mxCell>
        <mxCell id="MI2Ik392UGZHAneTyMIL-28" value="" style="endArrow=classic;html=1;rounded=0;exitX=1;exitY=1;exitDx=0;exitDy=0;entryX=0;entryY=0.75;entryDx=0;entryDy=0;" parent="mNrghwgnsyUfMwKl9J6l-1" source="mNrghwgnsyUfMwKl9J6l-14" target="mNrghwgnsyUfMwKl9J6l-16" edge="1">
          <mxGeometry width="50" height="50" relative="1" as="geometry">
            <mxPoint x="650" y="690" as="sourcePoint" />
            <mxPoint x="410" y="482.4999999999998" as="targetPoint" />
          </mxGeometry>
        </mxCell>
        <mxCell id="MI2Ik392UGZHAneTyMIL-30" value="" style="endArrow=classic;html=1;rounded=0;exitX=0;exitY=1;exitDx=0;exitDy=0;entryX=1;entryY=0.75;entryDx=0;entryDy=0;" parent="mNrghwgnsyUfMwKl9J6l-1" source="mNrghwgnsyUfMwKl9J6l-19" target="mNrghwgnsyUfMwKl9J6l-16" edge="1">
          <mxGeometry width="50" height="50" relative="1" as="geometry">
            <mxPoint x="1230" y="690" as="sourcePoint" />
            <mxPoint x="849.94" y="480.39999999999986" as="targetPoint" />
          </mxGeometry>
        </mxCell>
        <mxCell id="MI2Ik392UGZHAneTyMIL-31" value="*" style="text;html=1;strokeColor=none;fillColor=none;align=center;verticalAlign=middle;whiteSpace=wrap;rounded=0;fontSize=27;" parent="mNrghwgnsyUfMwKl9J6l-1" vertex="1">
          <mxGeometry x="430" y="460" width="60" height="30" as="geometry" />
        </mxCell>
        <mxCell id="MI2Ik392UGZHAneTyMIL-33" value="*" style="text;html=1;strokeColor=none;fillColor=none;align=center;verticalAlign=middle;whiteSpace=wrap;rounded=0;fontSize=27;" parent="mNrghwgnsyUfMwKl9J6l-1" vertex="1">
          <mxGeometry x="790" y="470" width="60" height="30" as="geometry" />
        </mxCell>
        <mxCell id="MI2Ik392UGZHAneTyMIL-35" value="send transactions updates" style="text;html=1;strokeColor=none;fillColor=none;align=center;verticalAlign=middle;whiteSpace=wrap;rounded=0;" parent="mNrghwgnsyUfMwKl9J6l-1" vertex="1">
          <mxGeometry x="595" y="390" width="120" height="25" as="geometry" />
        </mxCell>
        <mxCell id="MI2Ik392UGZHAneTyMIL-36" value="perform transactions" style="text;html=1;strokeColor=none;fillColor=none;align=center;verticalAlign=middle;whiteSpace=wrap;rounded=0;" parent="mNrghwgnsyUfMwKl9J6l-1" vertex="1">
          <mxGeometry x="870" y="577.5" width="120" height="25" as="geometry" />
        </mxCell>
        <mxCell id="MI2Ik392UGZHAneTyMIL-38" value="" style="edgeStyle=segmentEdgeStyle;endArrow=classic;html=1;curved=0;rounded=0;endSize=8;startSize=8;entryX=0;entryY=0.25;entryDx=0;entryDy=0;" parent="mNrghwgnsyUfMwKl9J6l-1" target="mNrghwgnsyUfMwKl9J6l-19" edge="1">
          <mxGeometry width="50" height="50" relative="1" as="geometry">
            <mxPoint x="780" y="240" as="sourcePoint" />
            <mxPoint x="830" y="190" as="targetPoint" />
            <Array as="points">
              <mxPoint x="850" y="240" />
              <mxPoint x="850" y="320" />
              <mxPoint x="920" y="320" />
              <mxPoint x="920" y="393" />
              <mxPoint x="930" y="393" />
            </Array>
          </mxGeometry>
        </mxCell>
        <mxCell id="MI2Ik392UGZHAneTyMIL-39" value="get transfers summary" style="text;html=1;strokeColor=none;fillColor=none;align=center;verticalAlign=middle;whiteSpace=wrap;rounded=0;" parent="mNrghwgnsyUfMwKl9J6l-1" vertex="1">
          <mxGeometry x="780" y="220" width="150" height="25" as="geometry" />
        </mxCell>
        <mxCell id="MI2Ik392UGZHAneTyMIL-47" value="get transactions summary" style="text;html=1;strokeColor=none;fillColor=none;align=center;verticalAlign=middle;whiteSpace=wrap;rounded=0;" parent="mNrghwgnsyUfMwKl9J6l-1" vertex="1">
          <mxGeometry x="580" y="262.5" width="150" height="25" as="geometry" />
        </mxCell>
        <mxCell id="MI2Ik392UGZHAneTyMIL-49" value="" style="edgeStyle=segmentEdgeStyle;endArrow=classic;html=1;curved=0;rounded=0;endSize=8;startSize=8;exitX=0.882;exitY=0;exitDx=0;exitDy=0;exitPerimeter=0;entryX=0.032;entryY=-0.008;entryDx=0;entryDy=0;entryPerimeter=0;" parent="mNrghwgnsyUfMwKl9J6l-1" source="mNrghwgnsyUfMwKl9J6l-13" target="mNrghwgnsyUfMwKl9J6l-18" edge="1">
          <mxGeometry width="50" height="50" relative="1" as="geometry">
            <mxPoint x="360" y="60" as="sourcePoint" />
            <mxPoint x="410" y="10" as="targetPoint" />
            <Array as="points">
              <mxPoint x="341" y="110" />
              <mxPoint x="960" y="110" />
              <mxPoint x="960" y="120" />
              <mxPoint x="960" y="120" />
            </Array>
          </mxGeometry>
        </mxCell>
        <mxCell id="MI2Ik392UGZHAneTyMIL-50" value="update points" style="text;html=1;strokeColor=none;fillColor=none;align=center;verticalAlign=middle;whiteSpace=wrap;rounded=0;" parent="mNrghwgnsyUfMwKl9J6l-1" vertex="1">
          <mxGeometry x="370" y="70" width="140" height="50" as="geometry" />
        </mxCell>
        <mxCell id="mNrghwgnsyUfMwKl9J6l-49" style="edgeStyle=orthogonalEdgeStyle;rounded=0;orthogonalLoop=1;jettySize=auto;html=1;exitX=0.5;exitY=1;exitDx=0;exitDy=0;entryX=0.25;entryY=0;entryDx=0;entryDy=0;" parent="1" source="mNrghwgnsyUfMwKl9J6l-47" target="mNrghwgnsyUfMwKl9J6l-2" edge="1">
          <mxGeometry relative="1" as="geometry">
            <Array as="points">
              <mxPoint x="1040" y="320" />
              <mxPoint x="1063" y="320" />
            </Array>
          </mxGeometry>
        </mxCell>
        <mxCell id="mNrghwgnsyUfMwKl9J6l-47" value="Web Application" style="rounded=0;whiteSpace=wrap;html=1;fontSize=14;" parent="1" vertex="1">
          <mxGeometry x="970" y="210" width="140" height="80" as="geometry" />
        </mxCell>
        <mxCell id="mNrghwgnsyUfMwKl9J6l-50" style="edgeStyle=orthogonalEdgeStyle;rounded=0;orthogonalLoop=1;jettySize=auto;html=1;entryX=0.75;entryY=0;entryDx=0;entryDy=0;" parent="1" source="mNrghwgnsyUfMwKl9J6l-48" target="mNrghwgnsyUfMwKl9J6l-2" edge="1">
          <mxGeometry relative="1" as="geometry">
            <Array as="points">
              <mxPoint x="1230" y="320" />
              <mxPoint x="1188" y="320" />
            </Array>
          </mxGeometry>
        </mxCell>
        <mxCell id="mNrghwgnsyUfMwKl9J6l-48" value="Mobile App" style="rounded=0;whiteSpace=wrap;html=1;fontSize=14;" parent="1" vertex="1">
          <mxGeometry x="1160" y="210" width="140" height="80" as="geometry" />
        </mxCell>
        <mxCell id="mNrghwgnsyUfMwKl9J6l-51" value="Email System" style="rounded=0;whiteSpace=wrap;html=1;fontSize=14;" parent="1" vertex="1">
          <mxGeometry x="870" y="1060" width="210" height="100" as="geometry" />
        </mxCell>
        <mxCell id="mNrghwgnsyUfMwKl9J6l-52" value="SMS System" style="rounded=0;whiteSpace=wrap;html=1;fontSize=14;" parent="1" vertex="1">
          <mxGeometry x="1160" y="1060" width="210" height="100" as="geometry" />
        </mxCell>
        <mxCell id="mNrghwgnsyUfMwKl9J6l-53" style="edgeStyle=orthogonalEdgeStyle;rounded=0;orthogonalLoop=1;jettySize=auto;html=1;exitX=0.25;exitY=1;exitDx=0;exitDy=0;entryX=0.5;entryY=0;entryDx=0;entryDy=0;" parent="1" source="mNrghwgnsyUfMwKl9J6l-16" target="mNrghwgnsyUfMwKl9J6l-51" edge="1">
          <mxGeometry relative="1" as="geometry">
            <Array as="points">
              <mxPoint x="1030" y="900" />
              <mxPoint x="1030" y="910" />
              <mxPoint x="975" y="910" />
            </Array>
          </mxGeometry>
        </mxCell>
        <mxCell id="mNrghwgnsyUfMwKl9J6l-54" style="edgeStyle=orthogonalEdgeStyle;rounded=0;orthogonalLoop=1;jettySize=auto;html=1;exitX=0.75;exitY=1;exitDx=0;exitDy=0;" parent="1" source="mNrghwgnsyUfMwKl9J6l-16" target="mNrghwgnsyUfMwKl9J6l-52" edge="1">
          <mxGeometry relative="1" as="geometry">
            <Array as="points">
              <mxPoint x="1200" y="900" />
              <mxPoint x="1200" y="910" />
              <mxPoint x="1265" y="910" />
            </Array>
          </mxGeometry>
        </mxCell>
        <mxCell id="mNrghwgnsyUfMwKl9J6l-138" value="API Calls" style="text;html=1;strokeColor=none;fillColor=none;align=center;verticalAlign=middle;whiteSpace=wrap;rounded=0;fontSize=14;" parent="1" vertex="1">
          <mxGeometry x="1190" y="320" width="60" height="30" as="geometry" />
        </mxCell>
        <mxCell id="mNrghwgnsyUfMwKl9J6l-140" value="Uses" style="text;html=1;strokeColor=none;fillColor=none;align=center;verticalAlign=middle;whiteSpace=wrap;rounded=0;fontSize=14;" parent="1" vertex="1">
          <mxGeometry x="990" y="1020" width="60" height="30" as="geometry" />
        </mxCell>
        <mxCell id="mNrghwgnsyUfMwKl9J6l-142" value="Uses" style="text;html=1;strokeColor=none;fillColor=none;align=center;verticalAlign=middle;whiteSpace=wrap;rounded=0;fontSize=14;" parent="1" vertex="1">
          <mxGeometry x="1180" y="1020" width="60" height="30" as="geometry" />
        </mxCell>
        <mxCell id="mNrghwgnsyUfMwKl9J6l-144" value="Uses" style="text;html=1;strokeColor=none;fillColor=none;align=center;verticalAlign=middle;whiteSpace=wrap;rounded=0;fontSize=14;" parent="1" vertex="1">
          <mxGeometry x="1015" y="320" width="50" height="20" as="geometry" />
        </mxCell>
        <mxCell id="mNrghwgnsyUfMwKl9J6l-146" value="Banking System" style="rounded=0;whiteSpace=wrap;html=1;fontSize=14;" parent="1" vertex="1">
          <mxGeometry x="1420" y="1060" width="210" height="100" as="geometry" />
        </mxCell>
        <mxCell id="mNrghwgnsyUfMwKl9J6l-147" style="edgeStyle=orthogonalEdgeStyle;rounded=0;orthogonalLoop=1;jettySize=auto;html=1;exitX=0.25;exitY=1;exitDx=0;exitDy=0;entryX=0.294;entryY=-0.022;entryDx=0;entryDy=0;entryPerimeter=0;" parent="1" source="mNrghwgnsyUfMwKl9J6l-19" target="mNrghwgnsyUfMwKl9J6l-146" edge="1">
          <mxGeometry relative="1" as="geometry" />
        </mxCell>
        <mxCell id="mNrghwgnsyUfMwKl9J6l-148" value="Charities/Utilities Companies" style="rounded=0;whiteSpace=wrap;html=1;fontSize=14;" parent="1" vertex="1">
          <mxGeometry x="600" y="1060" width="210" height="100" as="geometry" />
        </mxCell>
        <mxCell id="mNrghwgnsyUfMwKl9J6l-149" style="edgeStyle=orthogonalEdgeStyle;rounded=0;orthogonalLoop=1;jettySize=auto;html=1;entryX=0.55;entryY=-0.004;entryDx=0;entryDy=0;entryPerimeter=0;" parent="1" source="mNrghwgnsyUfMwKl9J6l-14" target="mNrghwgnsyUfMwKl9J6l-148" edge="1">
          <mxGeometry relative="1" as="geometry" />
        </mxCell>
        <mxCell id="nMTv1Ec1oyKzd_XRDGjU-1" value="Local Bank" style="rounded=0;whiteSpace=wrap;html=1;fontSize=14;" parent="1" vertex="1">
          <mxGeometry x="210" y="615" width="140" height="80" as="geometry" />
        </mxCell>
        <mxCell id="nMTv1Ec1oyKzd_XRDGjU-2" style="edgeStyle=orthogonalEdgeStyle;rounded=0;orthogonalLoop=1;jettySize=auto;html=1;entryX=0.75;entryY=0;entryDx=0;entryDy=0;" parent="1" source="mNrghwgnsyUfMwKl9J6l-13" target="nMTv1Ec1oyKzd_XRDGjU-1" edge="1">
          <mxGeometry relative="1" as="geometry" />
        </mxCell>
        <mxCell id="nMTv1Ec1oyKzd_XRDGjU-4" style="edgeStyle=orthogonalEdgeStyle;rounded=0;orthogonalLoop=1;jettySize=auto;html=1;entryX=0.75;entryY=1;entryDx=0;entryDy=0;" parent="1" source="mNrghwgnsyUfMwKl9J6l-14" target="nMTv1Ec1oyKzd_XRDGjU-1" edge="1">
          <mxGeometry relative="1" as="geometry" />
        </mxCell>
        <mxCell id="nMTv1Ec1oyKzd_XRDGjU-6" style="edgeStyle=orthogonalEdgeStyle;rounded=0;orthogonalLoop=1;jettySize=auto;html=1;entryX=1.004;entryY=0.623;entryDx=0;entryDy=0;entryPerimeter=0;" parent="1" source="mNrghwgnsyUfMwKl9J6l-10" target="nMTv1Ec1oyKzd_XRDGjU-1" edge="1">
          <mxGeometry relative="1" as="geometry">
            <Array as="points" />
          </mxGeometry>
        </mxCell>
        <mxCell id="nMTv1Ec1oyKzd_XRDGjU-7" value="update data" style="text;html=1;strokeColor=none;fillColor=none;align=center;verticalAlign=middle;whiteSpace=wrap;rounded=0;" parent="1" vertex="1">
          <mxGeometry x="340" y="500" width="90" height="30" as="geometry" />
        </mxCell>
        <mxCell id="nMTv1Ec1oyKzd_XRDGjU-8" value="update data" style="text;html=1;strokeColor=none;fillColor=none;align=center;verticalAlign=middle;whiteSpace=wrap;rounded=0;" parent="1" vertex="1">
          <mxGeometry x="360" y="620" width="90" height="30" as="geometry" />
        </mxCell>
        <mxCell id="nMTv1Ec1oyKzd_XRDGjU-9" value="update data" style="text;html=1;strokeColor=none;fillColor=none;align=center;verticalAlign=middle;whiteSpace=wrap;rounded=0;" parent="1" vertex="1">
          <mxGeometry x="320" y="750" width="90" height="30" as="geometry" />
        </mxCell>
        <mxCell id="nMTv1Ec1oyKzd_XRDGjU-13" value="" style="endArrow=none;html=1;rounded=0;exitX=1;exitY=0.453;exitDx=0;exitDy=0;exitPerimeter=0;" parent="1" source="mNrghwgnsyUfMwKl9J6l-17" edge="1">
          <mxGeometry width="50" height="50" relative="1" as="geometry">
            <mxPoint x="1830" y="680" as="sourcePoint" />
            <mxPoint x="1890" y="650" as="targetPoint" />
            <Array as="points">
              <mxPoint x="1860" y="650" />
            </Array>
          </mxGeometry>
        </mxCell>
        <mxCell id="nMTv1Ec1oyKzd_XRDGjU-14" value="" style="endArrow=none;html=1;rounded=0;" parent="1" edge="1">
          <mxGeometry width="50" height="50" relative="1" as="geometry">
            <mxPoint x="1890" y="1190" as="sourcePoint" />
            <mxPoint x="1890" y="650" as="targetPoint" />
          </mxGeometry>
        </mxCell>
        <mxCell id="nMTv1Ec1oyKzd_XRDGjU-15" value="" style="endArrow=none;html=1;rounded=0;" parent="1" edge="1">
          <mxGeometry width="50" height="50" relative="1" as="geometry">
            <mxPoint x="260" y="1190" as="sourcePoint" />
            <mxPoint x="1890" y="1190" as="targetPoint" />
          </mxGeometry>
        </mxCell>
        <mxCell id="nMTv1Ec1oyKzd_XRDGjU-16" value="" style="endArrow=classic;html=1;rounded=0;" parent="1" edge="1">
          <mxGeometry width="50" height="50" relative="1" as="geometry">
            <mxPoint x="260" y="1190" as="sourcePoint" />
            <mxPoint x="260" y="700" as="targetPoint" />
          </mxGeometry>
        </mxCell>
        <mxCell id="nMTv1Ec1oyKzd_XRDGjU-17" value="update data" style="text;html=1;strokeColor=none;fillColor=none;align=center;verticalAlign=middle;whiteSpace=wrap;rounded=0;" parent="1" vertex="1">
          <mxGeometry x="260" y="840" width="90" height="30" as="geometry" />
        </mxCell>
        <mxCell id="MI2Ik392UGZHAneTyMIL-7" value="" style="edgeStyle=segmentEdgeStyle;endArrow=classic;html=1;curved=0;rounded=0;endSize=8;startSize=8;entryX=1;entryY=0.5;entryDx=0;entryDy=0;" parent="1" target="mNrghwgnsyUfMwKl9J6l-48" edge="1">
          <mxGeometry width="50" height="50" relative="1" as="geometry">
            <mxPoint x="1240" y="890" as="sourcePoint" />
            <mxPoint x="1450" y="920" as="targetPoint" />
            <Array as="points">
              <mxPoint x="1920" y="890" />
              <mxPoint x="1920" y="250" />
            </Array>
          </mxGeometry>
        </mxCell>
        <mxCell id="MI2Ik392UGZHAneTyMIL-13" value="" style="edgeStyle=segmentEdgeStyle;endArrow=classic;html=1;curved=0;rounded=0;endSize=8;startSize=8;" parent="1" target="MI2Ik392UGZHAneTyMIL-10" edge="1">
          <mxGeometry width="50" height="50" relative="1" as="geometry">
            <mxPoint x="1300" y="270" as="sourcePoint" />
            <mxPoint x="1350" y="265" as="targetPoint" />
            <Array as="points">
              <mxPoint x="1300" y="270" />
              <mxPoint x="1340" y="270" />
              <mxPoint x="1340" y="425" />
            </Array>
          </mxGeometry>
        </mxCell>
        <mxCell id="MI2Ik392UGZHAneTyMIL-14" value="API Calls" style="text;html=1;strokeColor=none;fillColor=none;align=center;verticalAlign=middle;whiteSpace=wrap;rounded=0;fontSize=14;" parent="1" vertex="1">
          <mxGeometry x="1350" y="310" width="60" height="30" as="geometry" />
        </mxCell>
        <mxCell id="MI2Ik392UGZHAneTyMIL-15" value="Notifies" style="text;html=1;strokeColor=none;fillColor=none;align=center;verticalAlign=middle;whiteSpace=wrap;rounded=0;fontSize=14;" parent="1" vertex="1">
          <mxGeometry x="1340" y="250" width="60" height="30" as="geometry" />
        </mxCell>
        <mxCell id="MI2Ik392UGZHAneTyMIL-21" value="" style="edgeStyle=segmentEdgeStyle;endArrow=classic;html=1;curved=0;rounded=0;endSize=8;startSize=8;exitX=0;exitY=0.75;exitDx=0;exitDy=0;entryX=0.93;entryY=0.991;entryDx=0;entryDy=0;entryPerimeter=0;" parent="1" source="MI2Ik392UGZHAneTyMIL-18" target="nMTv1Ec1oyKzd_XRDGjU-1" edge="1">
          <mxGeometry width="50" height="50" relative="1" as="geometry">
            <mxPoint x="290" y="750" as="sourcePoint" />
            <mxPoint x="340" y="700" as="targetPoint" />
            <Array as="points">
              <mxPoint x="1000" y="720" />
              <mxPoint x="340" y="720" />
            </Array>
          </mxGeometry>
        </mxCell>
        <mxCell id="MI2Ik392UGZHAneTyMIL-22" value="update data" style="text;html=1;strokeColor=none;fillColor=none;align=center;verticalAlign=middle;whiteSpace=wrap;rounded=0;" parent="1" vertex="1">
          <mxGeometry x="350" y="690" width="90" height="30" as="geometry" />
        </mxCell>
        <mxCell id="MI2Ik392UGZHAneTyMIL-23" value="" style="edgeStyle=segmentEdgeStyle;endArrow=classic;html=1;curved=0;rounded=0;endSize=8;startSize=8;entryX=0.12;entryY=0.028;entryDx=0;entryDy=0;entryPerimeter=0;exitX=1;exitY=0.75;exitDx=0;exitDy=0;" parent="1" source="MI2Ik392UGZHAneTyMIL-18" target="mNrghwgnsyUfMwKl9J6l-146" edge="1">
          <mxGeometry width="50" height="50" relative="1" as="geometry">
            <mxPoint x="1330" y="970" as="sourcePoint" />
            <mxPoint x="1380" y="920" as="targetPoint" />
            <Array as="points">
              <mxPoint x="1370" y="710" />
              <mxPoint x="1370" y="990" />
              <mxPoint x="1445" y="990" />
            </Array>
          </mxGeometry>
        </mxCell>
        <mxCell id="MI2Ik392UGZHAneTyMIL-51" value="3rd Parties" style="rounded=0;whiteSpace=wrap;html=1;fontSize=14;" parent="1" vertex="1">
          <mxGeometry x="1940" y="495" width="210" height="100" as="geometry" />
        </mxCell>
        <mxCell id="MI2Ik392UGZHAneTyMIL-53" style="edgeStyle=orthogonalEdgeStyle;rounded=0;orthogonalLoop=1;jettySize=auto;html=1;entryX=0;entryY=0.5;entryDx=0;entryDy=0;" parent="1" source="mNrghwgnsyUfMwKl9J6l-18" target="MI2Ik392UGZHAneTyMIL-51" edge="1">
          <mxGeometry relative="1" as="geometry" />
        </mxCell>
        <mxCell id="MI2Ik392UGZHAneTyMIL-54" value="spend points" style="text;html=1;strokeColor=none;fillColor=none;align=center;verticalAlign=middle;whiteSpace=wrap;rounded=0;" parent="1" vertex="1">
          <mxGeometry x="1770" y="525" width="120" height="25" as="geometry" />
        </mxCell>
      </root>
    </mxGraphModel>
  </diagram>
</mxfile>
